<?xml version="1.0" encoding="UTF-8" standalone="no"?>
<!DOCTYPE svg PUBLIC "-//W3C//DTD SVG 1.1//EN"
 "http://www.w3.org/Graphics/SVG/1.1/DTD/svg11.dtd">
<!-- Generated by graphviz version 2.47.0 (20210316.0004)
 -->
<!-- Title: dependencies Pages: 1 -->
<svg width="504pt" height="284pt"
 viewBox="0.00 0.00 504.00 284.00" xmlns="http://www.w3.org/2000/svg" xmlns:xlink="http://www.w3.org/1999/xlink">
<g id="graph0" class="graph" transform="scale(1 1) rotate(0) translate(4 280)">
<title>dependencies</title>
<polygon fill="white" stroke="transparent" points="-4,4 -4,-280 500,-280 500,4 -4,4"/>
<text text-anchor="start" x="227.01" y="-42.4" font-family="Times-12" font-weight="bold" font-size="14.00">Legend</text>
<polygon fill="#ffffb3" stroke="transparent" points="14,-10 14,-30 34,-30 34,-10 14,-10"/>
<text text-anchor="start" x="37.63" y="-15.4" font-family="Times-12" font-size="14.00"> &#160;Declarations</text>
<polygon fill="#8dd3c7" stroke="transparent" points="127,-10 127,-30 147,-30 147,-10 127,-10"/>
<text text-anchor="start" x="150.73" y="-15.4" font-family="Times-12" font-size="14.00"> &#160;Module</text>
<polygon fill="#80b1d3" stroke="transparent" points="213,-10 213,-30 233,-30 233,-10 213,-10"/>
<text text-anchor="start" x="236.78" y="-15.4" font-family="Times-12" font-size="14.00"> &#160;Bootstrap</text>
<polygon fill="#fdb462" stroke="transparent" points="310,-10 310,-30 330,-30 330,-10 310,-10"/>
<text text-anchor="start" x="333.67" y="-15.4" font-family="Times-12" font-size="14.00"> &#160;Providers</text>
<polygon fill="#fb8072" stroke="transparent" points="406,-10 406,-30 426,-30 426,-10 406,-10"/>
<text text-anchor="start" x="429.73" y="-15.4" font-family="Times-12" font-size="14.00"> &#160;Exports</text>
<g id="clust1" class="cluster">
<title>cluster_RegionModule</title>
<polygon fill="none" stroke="black" stroke-dasharray="1,5" points="74,-70 74,-268 422,-268 422,-70 74,-70"/>
</g>
<g id="clust3" class="cluster">
<title>cluster_RegionModule_imports</title>
<polygon fill="none" stroke="black" points="82,-78 82,-130 414,-130 414,-78 82,-78"/>
</g>
<g id="clust4" class="cluster">
<title>cluster_RegionModule_exports</title>
<polygon fill="none" stroke="black" points="162,-208 162,-260 334,-260 334,-208 162,-208"/>
</g>
<!-- RegionFormComponent -->
<g id="node1" class="node">
<title>RegionFormComponent</title>
<polygon fill="#8dd3c7" stroke="black" points="406.11,-122 403.11,-126 382.11,-126 379.11,-122 253.89,-122 253.89,-86 406.11,-86 406.11,-122"/>
<text text-anchor="middle" x="330" y="-99.8" font-family="Times,serif" font-size="14.00">RegionFormComponent</text>
</g>
<!-- RegionModule -->
<g id="node3" class="node">
<title>RegionModule</title>
<polygon fill="#8dd3c7" stroke="black" points="297.99,-187 294.99,-191 273.99,-191 270.99,-187 198.01,-187 198.01,-151 297.99,-151 297.99,-187"/>
<text text-anchor="middle" x="248" y="-164.8" font-family="Times,serif" font-size="14.00">RegionModule</text>
</g>
<!-- RegionFormComponent&#45;&gt;RegionModule -->
<g id="edge1" class="edge">
<title>RegionFormComponent&#45;&gt;RegionModule</title>
<path fill="none" stroke="black" d="M275.97,-122.11C275.97,-122.11 275.97,-140.99 275.97,-140.99"/>
<polygon fill="black" stroke="black" points="272.47,-140.99 275.97,-150.99 279.47,-140.99 272.47,-140.99"/>
</g>
<!-- RegionRoutingModule -->
<g id="node2" class="node">
<title>RegionRoutingModule</title>
<polygon fill="#8dd3c7" stroke="black" points="235.61,-122 232.61,-126 211.61,-126 208.61,-122 90.39,-122 90.39,-86 235.61,-86 235.61,-122"/>
<text text-anchor="middle" x="163" y="-99.8" font-family="Times,serif" font-size="14.00">RegionRoutingModule</text>
</g>
<!-- RegionRoutingModule&#45;&gt;RegionModule -->
<g id="edge2" class="edge">
<title>RegionRoutingModule&#45;&gt;RegionModule</title>
<path fill="none" stroke="black" d="M216.78,-122.11C216.78,-122.11 216.78,-140.99 216.78,-140.99"/>
<polygon fill="black" stroke="black" points="213.28,-140.99 216.78,-150.99 220.28,-140.99 213.28,-140.99"/>
</g>
<!-- RegionFormComponent  -->
<g id="node4" class="node">
<title>RegionFormComponent </title>
<polygon fill="#fb8072" stroke="black" points="325.61,-252 170.39,-252 170.39,-216 325.61,-216 325.61,-252"/>
<text text-anchor="middle" x="248" y="-229.8" font-family="Times,serif" font-size="14.00">RegionFormComponent </text>
</g>
<!-- RegionModule&#45;&gt;RegionFormComponent  -->
<g id="edge3" class="edge">
<title>RegionModule&#45;&gt;RegionFormComponent </title>
<path fill="none" stroke="black" stroke-dasharray="5,2" d="M248,-187.11C248,-187.11 248,-205.99 248,-205.99"/>
<polygon fill="black" stroke="black" points="244.5,-205.99 248,-215.99 251.5,-205.99 244.5,-205.99"/>
</g>
</g>
</svg>
