<?xml version="1.0" encoding="UTF-8" standalone="no"?>
<!DOCTYPE svg PUBLIC "-//W3C//DTD SVG 1.1//EN"
 "http://www.w3.org/Graphics/SVG/1.1/DTD/svg11.dtd">
<!-- Generated by graphviz version 2.47.0 (20210316.0004)
 -->
<!-- Title: dependencies Pages: 1 -->
<svg width="745pt" height="211pt"
 viewBox="0.00 0.00 745.00 211.00" xmlns="http://www.w3.org/2000/svg" xmlns:xlink="http://www.w3.org/1999/xlink">
<g id="graph0" class="graph" transform="scale(1 1) rotate(0) translate(4 207)">
<title>dependencies</title>
<polygon fill="white" stroke="transparent" points="-4,4 -4,-207 741,-207 741,4 -4,4"/>
<text text-anchor="start" x="347.51" y="-42.4" font-family="Times-12" font-weight="bold" font-size="14.00">Legend</text>
<polygon fill="#ffffb3" stroke="transparent" points="134.5,-10 134.5,-30 154.5,-30 154.5,-10 134.5,-10"/>
<text text-anchor="start" x="158.13" y="-15.4" font-family="Times-12" font-size="14.00"> &#160;Declarations</text>
<polygon fill="#8dd3c7" stroke="transparent" points="247.5,-10 247.5,-30 267.5,-30 267.5,-10 247.5,-10"/>
<text text-anchor="start" x="271.23" y="-15.4" font-family="Times-12" font-size="14.00"> &#160;Module</text>
<polygon fill="#80b1d3" stroke="transparent" points="333.5,-10 333.5,-30 353.5,-30 353.5,-10 333.5,-10"/>
<text text-anchor="start" x="357.28" y="-15.4" font-family="Times-12" font-size="14.00"> &#160;Bootstrap</text>
<polygon fill="#fdb462" stroke="transparent" points="430.5,-10 430.5,-30 450.5,-30 450.5,-10 430.5,-10"/>
<text text-anchor="start" x="454.17" y="-15.4" font-family="Times-12" font-size="14.00"> &#160;Providers</text>
<polygon fill="#fb8072" stroke="transparent" points="526.5,-10 526.5,-30 546.5,-30 546.5,-10 526.5,-10"/>
<text text-anchor="start" x="550.23" y="-15.4" font-family="Times-12" font-size="14.00"> &#160;Exports</text>
<g id="clust1" class="cluster">
<title>cluster_DepartmentModule</title>
<polygon fill="none" stroke="black" stroke-dasharray="1,5" points="8,-70 8,-195 729,-195 729,-70 8,-70"/>
</g>
<g id="clust3" class="cluster">
<title>cluster_DepartmentModule_imports</title>
<polygon fill="none" stroke="black" points="16,-78 16,-130 721,-130 721,-78 16,-78"/>
</g>
<!-- DepartmentListComponent -->
<g id="node1" class="node">
<title>DepartmentListComponent</title>
<polygon fill="#8dd3c7" stroke="black" points="712.69,-122 709.69,-126 688.69,-126 685.69,-122 543.31,-122 543.31,-86 712.69,-86 712.69,-122"/>
<text text-anchor="middle" x="628" y="-99.8" font-family="Times,serif" font-size="14.00">DepartmentListComponent</text>
</g>
<!-- DepartmentModule -->
<g id="node5" class="node">
<title>DepartmentModule</title>
<polygon fill="#8dd3c7" stroke="black" points="425.63,-187 422.63,-191 401.63,-191 398.63,-187 300.37,-187 300.37,-151 425.63,-151 425.63,-187"/>
<text text-anchor="middle" x="363" y="-164.8" font-family="Times,serif" font-size="14.00">DepartmentModule</text>
</g>
<!-- DepartmentListComponent&#45;&gt;DepartmentModule -->
<g id="edge1" class="edge">
<title>DepartmentListComponent&#45;&gt;DepartmentModule</title>
<path fill="none" stroke="black" d="M628,-122.11C628,-141.34 628,-169 628,-169 628,-169 435.8,-169 435.8,-169"/>
<polygon fill="black" stroke="black" points="435.8,-165.5 425.8,-169 435.8,-172.5 435.8,-165.5"/>
</g>
<!-- DepartmentRoutingModule -->
<g id="node2" class="node">
<title>DepartmentRoutingModule</title>
<polygon fill="#8dd3c7" stroke="black" points="525.25,-122 522.25,-126 501.25,-126 498.25,-122 354.75,-122 354.75,-86 525.25,-86 525.25,-122"/>
<text text-anchor="middle" x="440" y="-99.8" font-family="Times,serif" font-size="14.00">DepartmentRoutingModule</text>
</g>
<!-- DepartmentRoutingModule&#45;&gt;DepartmentModule -->
<g id="edge2" class="edge">
<title>DepartmentRoutingModule&#45;&gt;DepartmentModule</title>
<path fill="none" stroke="black" d="M390.22,-122.11C390.22,-122.11 390.22,-140.99 390.22,-140.99"/>
<polygon fill="black" stroke="black" points="386.72,-140.99 390.22,-150.99 393.72,-140.99 386.72,-140.99"/>
</g>
<!-- SharedModule -->
<g id="node3" class="node">
<title>SharedModule</title>
<polygon fill="#8dd3c7" stroke="black" points="336.42,-122 333.42,-126 312.42,-126 309.42,-122 237.58,-122 237.58,-86 336.42,-86 336.42,-122"/>
<text text-anchor="middle" x="287" y="-99.8" font-family="Times,serif" font-size="14.00">SharedModule</text>
</g>
<!-- SharedModule&#45;&gt;DepartmentModule -->
<g id="edge3" class="edge">
<title>SharedModule&#45;&gt;DepartmentModule</title>
<path fill="none" stroke="black" d="M318.2,-122.11C318.2,-122.11 318.2,-140.99 318.2,-140.99"/>
<polygon fill="black" stroke="black" points="314.7,-140.99 318.2,-150.99 321.7,-140.99 314.7,-140.99"/>
</g>
<!-- TestTechniqueTableComponent -->
<g id="node4" class="node">
<title>TestTechniqueTableComponent</title>
<polygon fill="#8dd3c7" stroke="black" points="220.39,-122 217.39,-126 196.39,-126 193.39,-122 23.61,-122 23.61,-86 220.39,-86 220.39,-122"/>
<text text-anchor="middle" x="122" y="-99.8" font-family="Times,serif" font-size="14.00">TestTechniqueTableComponent</text>
</g>
<!-- TestTechniqueTableComponent&#45;&gt;DepartmentModule -->
<g id="edge4" class="edge">
<title>TestTechniqueTableComponent&#45;&gt;DepartmentModule</title>
<path fill="none" stroke="black" d="M122,-122.11C122,-141.34 122,-169 122,-169 122,-169 290.31,-169 290.31,-169"/>
<polygon fill="black" stroke="black" points="290.31,-172.5 300.31,-169 290.31,-165.5 290.31,-172.5"/>
</g>
</g>
</svg>
