<?xml version="1.0" encoding="UTF-8" standalone="no"?>
<!DOCTYPE svg PUBLIC "-//W3C//DTD SVG 1.1//EN"
 "http://www.w3.org/Graphics/SVG/1.1/DTD/svg11.dtd">
<!-- Generated by graphviz version 2.47.0 (20210316.0004)
 -->
<!-- Title: dependencies Pages: 1 -->
<svg width="504pt" height="284pt"
 viewBox="0.00 0.00 504.00 284.00" xmlns="http://www.w3.org/2000/svg" xmlns:xlink="http://www.w3.org/1999/xlink">
<g id="graph0" class="graph" transform="scale(1 1) rotate(0) translate(4 280)">
<title>dependencies</title>
<polygon fill="white" stroke="transparent" points="-4,4 -4,-280 500,-280 500,4 -4,4"/>
<text text-anchor="start" x="227.01" y="-42.4" font-family="Times-12" font-weight="bold" font-size="14.00">Legend</text>
<polygon fill="#ffffb3" stroke="transparent" points="14,-10 14,-30 34,-30 34,-10 14,-10"/>
<text text-anchor="start" x="37.63" y="-15.4" font-family="Times-12" font-size="14.00"> &#160;Declarations</text>
<polygon fill="#8dd3c7" stroke="transparent" points="127,-10 127,-30 147,-30 147,-10 127,-10"/>
<text text-anchor="start" x="150.73" y="-15.4" font-family="Times-12" font-size="14.00"> &#160;Module</text>
<polygon fill="#80b1d3" stroke="transparent" points="213,-10 213,-30 233,-30 233,-10 213,-10"/>
<text text-anchor="start" x="236.78" y="-15.4" font-family="Times-12" font-size="14.00"> &#160;Bootstrap</text>
<polygon fill="#fdb462" stroke="transparent" points="310,-10 310,-30 330,-30 330,-10 310,-10"/>
<text text-anchor="start" x="333.67" y="-15.4" font-family="Times-12" font-size="14.00"> &#160;Providers</text>
<polygon fill="#fb8072" stroke="transparent" points="406,-10 406,-30 426,-30 426,-10 406,-10"/>
<text text-anchor="start" x="429.73" y="-15.4" font-family="Times-12" font-size="14.00"> &#160;Exports</text>
<g id="clust1" class="cluster">
<title>cluster_FeaturesModule</title>
<polygon fill="none" stroke="black" stroke-dasharray="1,5" points="52,-70 52,-268 444,-268 444,-70 52,-70"/>
</g>
<g id="clust3" class="cluster">
<title>cluster_FeaturesModule_imports</title>
<polygon fill="none" stroke="black" points="60,-78 60,-130 436,-130 436,-78 60,-78"/>
</g>
<g id="clust4" class="cluster">
<title>cluster_FeaturesModule_exports</title>
<polygon fill="none" stroke="black" points="115,-208 115,-260 382,-260 382,-208 115,-208"/>
</g>
<!-- DepartmentModule -->
<g id="node1" class="node">
<title>DepartmentModule</title>
<polygon fill="#8dd3c7" stroke="black" points="427.63,-122 424.63,-126 403.63,-126 400.63,-122 302.37,-122 302.37,-86 427.63,-86 427.63,-122"/>
<text text-anchor="middle" x="365" y="-99.8" font-family="Times,serif" font-size="14.00">DepartmentModule</text>
</g>
<!-- FeaturesModule -->
<g id="node4" class="node">
<title>FeaturesModule</title>
<polygon fill="#8dd3c7" stroke="black" points="287.47,-187 284.47,-191 263.47,-191 260.47,-187 180.53,-187 180.53,-151 287.47,-151 287.47,-187"/>
<text text-anchor="middle" x="234" y="-164.8" font-family="Times,serif" font-size="14.00">FeaturesModule</text>
</g>
<!-- DepartmentModule&#45;&gt;FeaturesModule -->
<g id="edge1" class="edge">
<title>DepartmentModule&#45;&gt;FeaturesModule</title>
<path fill="none" stroke="black" d="M337.88,-122.11C337.88,-141.34 337.88,-169 337.88,-169 337.88,-169 297.76,-169 297.76,-169"/>
<polygon fill="black" stroke="black" points="297.76,-165.5 287.76,-169 297.76,-172.5 297.76,-165.5"/>
</g>
<!-- RegionModule -->
<g id="node2" class="node">
<title>RegionModule</title>
<polygon fill="#8dd3c7" stroke="black" points="283.99,-122 280.99,-126 259.99,-126 256.99,-122 184.01,-122 184.01,-86 283.99,-86 283.99,-122"/>
<text text-anchor="middle" x="234" y="-99.8" font-family="Times,serif" font-size="14.00">RegionModule</text>
</g>
<!-- RegionModule&#45;&gt;FeaturesModule -->
<g id="edge2" class="edge">
<title>RegionModule&#45;&gt;FeaturesModule</title>
<path fill="none" stroke="black" d="M234,-122.11C234,-122.11 234,-140.99 234,-140.99"/>
<polygon fill="black" stroke="black" points="230.5,-140.99 234,-150.99 237.5,-140.99 230.5,-140.99"/>
</g>
<!-- SharedModule -->
<g id="node3" class="node">
<title>SharedModule</title>
<polygon fill="#8dd3c7" stroke="black" points="166.42,-122 163.42,-126 142.42,-126 139.42,-122 67.58,-122 67.58,-86 166.42,-86 166.42,-122"/>
<text text-anchor="middle" x="117" y="-99.8" font-family="Times,serif" font-size="14.00">SharedModule</text>
</g>
<!-- SharedModule&#45;&gt;FeaturesModule -->
<g id="edge3" class="edge">
<title>SharedModule&#45;&gt;FeaturesModule</title>
<path fill="none" stroke="black" d="M144.73,-122.11C144.73,-141.34 144.73,-169 144.73,-169 144.73,-169 170.53,-169 170.53,-169"/>
<polygon fill="black" stroke="black" points="170.53,-172.5 180.53,-169 170.53,-165.5 170.53,-172.5"/>
</g>
<!-- DepartmentModule  -->
<g id="node5" class="node">
<title>DepartmentModule </title>
<polygon fill="#fb8072" stroke="black" points="373.63,-252 244.37,-252 244.37,-216 373.63,-216 373.63,-252"/>
<text text-anchor="middle" x="309" y="-229.8" font-family="Times,serif" font-size="14.00">DepartmentModule </text>
</g>
<!-- FeaturesModule&#45;&gt;DepartmentModule  -->
<g id="edge4" class="edge">
<title>FeaturesModule&#45;&gt;DepartmentModule </title>
<path fill="none" stroke="black" stroke-dasharray="5,2" d="M265.96,-187.11C265.96,-187.11 265.96,-205.99 265.96,-205.99"/>
<polygon fill="black" stroke="black" points="262.46,-205.99 265.96,-215.99 269.46,-205.99 262.46,-205.99"/>
</g>
<!-- RegionModule  -->
<g id="node6" class="node">
<title>RegionModule </title>
<polygon fill="#fb8072" stroke="black" points="226.99,-252 123.01,-252 123.01,-216 226.99,-216 226.99,-252"/>
<text text-anchor="middle" x="175" y="-229.8" font-family="Times,serif" font-size="14.00">RegionModule </text>
</g>
<!-- FeaturesModule&#45;&gt;RegionModule  -->
<g id="edge5" class="edge">
<title>FeaturesModule&#45;&gt;RegionModule </title>
<path fill="none" stroke="black" stroke-dasharray="5,2" d="M203.63,-187.11C203.63,-187.11 203.63,-205.99 203.63,-205.99"/>
<polygon fill="black" stroke="black" points="200.13,-205.99 203.63,-215.99 207.13,-205.99 200.13,-205.99"/>
</g>
</g>
</svg>
