<?xml version="1.0" encoding="UTF-8" standalone="no"?>
<!DOCTYPE svg PUBLIC "-//W3C//DTD SVG 1.1//EN"
 "http://www.w3.org/Graphics/SVG/1.1/DTD/svg11.dtd">
<!-- Generated by graphviz version 2.47.0 (20210316.0004)
 -->
<!-- Title: dependencies Pages: 1 -->
<svg width="1281pt" height="360pt"
 viewBox="0.00 0.00 1281.00 360.00" xmlns="http://www.w3.org/2000/svg" xmlns:xlink="http://www.w3.org/1999/xlink">
<g id="graph0" class="graph" transform="scale(1 1) rotate(0) translate(4 356)">
<title>dependencies</title>
<polygon fill="white" stroke="transparent" points="-4,4 -4,-356 1277,-356 1277,4 -4,4"/>
<text text-anchor="start" x="615.51" y="-42.4" font-family="Times-12" font-weight="bold" font-size="14.00">Legend</text>
<polygon fill="#ffffb3" stroke="transparent" points="402.5,-10 402.5,-30 422.5,-30 422.5,-10 402.5,-10"/>
<text text-anchor="start" x="426.13" y="-15.4" font-family="Times-12" font-size="14.00"> &#160;Declarations</text>
<polygon fill="#8dd3c7" stroke="transparent" points="515.5,-10 515.5,-30 535.5,-30 535.5,-10 515.5,-10"/>
<text text-anchor="start" x="539.23" y="-15.4" font-family="Times-12" font-size="14.00"> &#160;Module</text>
<polygon fill="#80b1d3" stroke="transparent" points="601.5,-10 601.5,-30 621.5,-30 621.5,-10 601.5,-10"/>
<text text-anchor="start" x="625.28" y="-15.4" font-family="Times-12" font-size="14.00"> &#160;Bootstrap</text>
<polygon fill="#fdb462" stroke="transparent" points="698.5,-10 698.5,-30 718.5,-30 718.5,-10 698.5,-10"/>
<text text-anchor="start" x="722.17" y="-15.4" font-family="Times-12" font-size="14.00"> &#160;Providers</text>
<polygon fill="#fb8072" stroke="transparent" points="794.5,-10 794.5,-30 814.5,-30 814.5,-10 794.5,-10"/>
<text text-anchor="start" x="818.23" y="-15.4" font-family="Times-12" font-size="14.00"> &#160;Exports</text>
<g id="clust7" class="cluster">
<title>cluster_DepartmentModule</title>
<polygon fill="none" stroke="black" stroke-dasharray="1,5" points="8,-70 8,-206 729,-206 729,-70 8,-70"/>
</g>
<g id="clust9" class="cluster">
<title>cluster_DepartmentModule_imports</title>
<polygon fill="none" stroke="black" points="16,-78 16,-130 721,-130 721,-78 16,-78"/>
</g>
<g id="clust19" class="cluster">
<title>cluster_FeaturesModule</title>
<polygon fill="none" stroke="black" stroke-dasharray="1,5" points="737,-146 737,-344 1020,-344 1020,-146 737,-146"/>
</g>
<g id="clust21" class="cluster">
<title>cluster_FeaturesModule_imports</title>
<polygon fill="none" stroke="black" points="834,-154 834,-206 950,-206 950,-154 834,-154"/>
</g>
<g id="clust22" class="cluster">
<title>cluster_FeaturesModule_exports</title>
<polygon fill="none" stroke="black" points="745,-284 745,-336 1012,-336 1012,-284 745,-284"/>
</g>
<g id="clust37" class="cluster">
<title>cluster_RegionModule</title>
<polygon fill="none" stroke="black" stroke-dasharray="1,5" points="737,-70 737,-138 1265,-138 1265,-70 737,-70"/>
</g>
<g id="clust39" class="cluster">
<title>cluster_RegionModule_imports</title>
<polygon fill="none" stroke="black" points="925,-78 925,-130 1257,-130 1257,-78 925,-78"/>
</g>
<g id="clust40" class="cluster">
<title>cluster_RegionModule_exports</title>
<polygon fill="none" stroke="black" points="745,-78 745,-130 917,-130 917,-78 745,-78"/>
</g>
<!-- DepartmentListComponent -->
<g id="node1" class="node">
<title>DepartmentListComponent</title>
<polygon fill="#8dd3c7" stroke="black" points="596.69,-122 593.69,-126 572.69,-126 569.69,-122 427.31,-122 427.31,-86 596.69,-86 596.69,-122"/>
<text text-anchor="middle" x="512" y="-99.8" font-family="Times,serif" font-size="14.00">DepartmentListComponent</text>
</g>
<!-- DepartmentModule -->
<g id="node5" class="node">
<title>DepartmentModule</title>
<polygon fill="#8dd3c7" stroke="black" points="574.63,-198 571.63,-202 550.63,-202 547.63,-198 449.37,-198 449.37,-162 574.63,-162 574.63,-198"/>
<text text-anchor="middle" x="512" y="-175.8" font-family="Times,serif" font-size="14.00">DepartmentModule</text>
</g>
<!-- DepartmentListComponent&#45;&gt;DepartmentModule -->
<g id="edge1" class="edge">
<title>DepartmentListComponent&#45;&gt;DepartmentModule</title>
<path fill="none" stroke="black" d="M512,-122.01C512,-122.01 512,-151.85 512,-151.85"/>
<polygon fill="black" stroke="black" points="508.5,-151.85 512,-161.85 515.5,-151.85 508.5,-151.85"/>
</g>
<!-- DepartmentRoutingModule -->
<g id="node2" class="node">
<title>DepartmentRoutingModule</title>
<polygon fill="#8dd3c7" stroke="black" points="409.25,-122 406.25,-126 385.25,-126 382.25,-122 238.75,-122 238.75,-86 409.25,-86 409.25,-122"/>
<text text-anchor="middle" x="324" y="-99.8" font-family="Times,serif" font-size="14.00">DepartmentRoutingModule</text>
</g>
<!-- DepartmentRoutingModule&#45;&gt;DepartmentModule -->
<g id="edge2" class="edge">
<title>DepartmentRoutingModule&#45;&gt;DepartmentModule</title>
<path fill="none" stroke="black" d="M324,-122.03C324,-142.77 324,-174 324,-174 324,-174 439.14,-174 439.14,-174"/>
<polygon fill="black" stroke="black" points="439.14,-177.5 449.14,-174 439.14,-170.5 439.14,-177.5"/>
</g>
<!-- SharedModule -->
<g id="node3" class="node">
<title>SharedModule</title>
<polygon fill="#8dd3c7" stroke="black" points="713.42,-122 710.42,-126 689.42,-126 686.42,-122 614.58,-122 614.58,-86 713.42,-86 713.42,-122"/>
<text text-anchor="middle" x="664" y="-99.8" font-family="Times,serif" font-size="14.00">SharedModule</text>
</g>
<!-- SharedModule&#45;&gt;DepartmentModule -->
<g id="edge3" class="edge">
<title>SharedModule&#45;&gt;DepartmentModule</title>
<path fill="none" stroke="black" d="M647.6,-122.03C647.6,-142.77 647.6,-174 647.6,-174 647.6,-174 584.64,-174 584.64,-174"/>
<polygon fill="black" stroke="black" points="584.64,-170.5 574.64,-174 584.64,-177.5 584.64,-170.5"/>
</g>
<!-- FeaturesModule -->
<g id="node7" class="node">
<title>FeaturesModule</title>
<polygon fill="#8dd3c7" stroke="black" points="858.47,-263 855.47,-267 834.47,-267 831.47,-263 751.53,-263 751.53,-227 858.47,-227 858.47,-263"/>
<text text-anchor="middle" x="805" y="-240.8" font-family="Times,serif" font-size="14.00">FeaturesModule</text>
</g>
<!-- SharedModule&#45;&gt;FeaturesModule -->
<g id="edge7" class="edge">
<title>SharedModule&#45;&gt;FeaturesModule</title>
<path fill="none" stroke="black" d="M680.4,-122.14C680.4,-160.23 680.4,-245 680.4,-245 680.4,-245 741.44,-245 741.44,-245"/>
<polygon fill="black" stroke="black" points="741.44,-248.5 751.44,-245 741.44,-241.5 741.44,-248.5"/>
</g>
<!-- TestTechniqueTableComponent -->
<g id="node4" class="node">
<title>TestTechniqueTableComponent</title>
<polygon fill="#8dd3c7" stroke="black" points="220.39,-122 217.39,-126 196.39,-126 193.39,-122 23.61,-122 23.61,-86 220.39,-86 220.39,-122"/>
<text text-anchor="middle" x="122" y="-99.8" font-family="Times,serif" font-size="14.00">TestTechniqueTableComponent</text>
</g>
<!-- TestTechniqueTableComponent&#45;&gt;DepartmentModule -->
<g id="edge4" class="edge">
<title>TestTechniqueTableComponent&#45;&gt;DepartmentModule</title>
<path fill="none" stroke="black" d="M122,-122.2C122,-146.36 122,-186 122,-186 122,-186 439.34,-186 439.34,-186"/>
<polygon fill="black" stroke="black" points="439.34,-189.5 449.34,-186 439.34,-182.5 439.34,-189.5"/>
</g>
<!-- DepartmentModule&#45;&gt;FeaturesModule -->
<g id="edge5" class="edge">
<title>DepartmentModule&#45;&gt;FeaturesModule</title>
<path fill="none" stroke="black" d="M574.68,-186C658.75,-186 797.6,-186 797.6,-186 797.6,-186 797.6,-216.98 797.6,-216.98"/>
<polygon fill="black" stroke="black" points="794.1,-216.98 797.6,-226.98 801.1,-216.98 794.1,-216.98"/>
</g>
<!-- RegionModule -->
<g id="node6" class="node">
<title>RegionModule</title>
<polygon fill="#8dd3c7" stroke="black" points="941.99,-198 938.99,-202 917.99,-202 914.99,-198 842.01,-198 842.01,-162 941.99,-162 941.99,-198"/>
<text text-anchor="middle" x="892" y="-175.8" font-family="Times,serif" font-size="14.00">RegionModule</text>
</g>
<!-- RegionModule&#45;&gt;FeaturesModule -->
<g id="edge6" class="edge">
<title>RegionModule&#45;&gt;FeaturesModule</title>
<path fill="none" stroke="black" d="M850.25,-198.11C850.25,-198.11 850.25,-216.99 850.25,-216.99"/>
<polygon fill="black" stroke="black" points="846.75,-216.99 850.25,-226.99 853.75,-216.99 846.75,-216.99"/>
</g>
<!-- RegionFormComponent  -->
<g id="node12" class="node">
<title>RegionFormComponent </title>
<polygon fill="#fb8072" stroke="black" points="908.61,-122 753.39,-122 753.39,-86 908.61,-86 908.61,-122"/>
<text text-anchor="middle" x="831" y="-99.8" font-family="Times,serif" font-size="14.00">RegionFormComponent </text>
</g>
<!-- RegionModule&#45;&gt;RegionFormComponent  -->
<g id="edge12" class="edge">
<title>RegionModule&#45;&gt;RegionFormComponent </title>
<path fill="none" stroke="black" stroke-dasharray="5,2" d="M875.4,-161.99C875.4,-161.99 875.4,-132.15 875.4,-132.15"/>
<polygon fill="black" stroke="black" points="878.9,-132.15 875.4,-122.15 871.9,-132.15 878.9,-132.15"/>
</g>
<!-- DepartmentModule  -->
<g id="node8" class="node">
<title>DepartmentModule </title>
<polygon fill="#fb8072" stroke="black" points="1003.63,-328 874.37,-328 874.37,-292 1003.63,-292 1003.63,-328"/>
<text text-anchor="middle" x="939" y="-305.8" font-family="Times,serif" font-size="14.00">DepartmentModule </text>
</g>
<!-- FeaturesModule&#45;&gt;DepartmentModule  -->
<g id="edge8" class="edge">
<title>FeaturesModule&#45;&gt;DepartmentModule </title>
<path fill="none" stroke="black" stroke-dasharray="5,2" d="M858.72,-245C883.8,-245 908.21,-245 908.21,-245 908.21,-245 908.21,-281.89 908.21,-281.89"/>
<polygon fill="black" stroke="black" points="904.71,-281.89 908.21,-291.89 911.71,-281.89 904.71,-281.89"/>
</g>
<!-- RegionModule  -->
<g id="node9" class="node">
<title>RegionModule </title>
<polygon fill="#fb8072" stroke="black" points="856.99,-328 753.01,-328 753.01,-292 856.99,-292 856.99,-328"/>
<text text-anchor="middle" x="805" y="-305.8" font-family="Times,serif" font-size="14.00">RegionModule </text>
</g>
<!-- FeaturesModule&#45;&gt;RegionModule  -->
<g id="edge9" class="edge">
<title>FeaturesModule&#45;&gt;RegionModule </title>
<path fill="none" stroke="black" stroke-dasharray="5,2" d="M805,-263.11C805,-263.11 805,-281.99 805,-281.99"/>
<polygon fill="black" stroke="black" points="801.5,-281.99 805,-291.99 808.5,-281.99 801.5,-281.99"/>
</g>
<!-- RegionFormComponent -->
<g id="node10" class="node">
<title>RegionFormComponent</title>
<polygon fill="#8dd3c7" stroke="black" points="1249.11,-122 1246.11,-126 1225.11,-126 1222.11,-122 1096.89,-122 1096.89,-86 1249.11,-86 1249.11,-122"/>
<text text-anchor="middle" x="1173" y="-99.8" font-family="Times,serif" font-size="14.00">RegionFormComponent</text>
</g>
<!-- RegionFormComponent&#45;&gt;RegionModule -->
<g id="edge10" class="edge">
<title>RegionFormComponent&#45;&gt;RegionModule</title>
<path fill="none" stroke="black" d="M1173,-122.01C1173,-144.49 1173,-180 1173,-180 1173,-180 952.24,-180 952.24,-180"/>
<polygon fill="black" stroke="black" points="952.24,-176.5 942.24,-180 952.24,-183.5 952.24,-176.5"/>
</g>
<!-- RegionRoutingModule -->
<g id="node11" class="node">
<title>RegionRoutingModule</title>
<polygon fill="#8dd3c7" stroke="black" points="1078.61,-122 1075.61,-126 1054.61,-126 1051.61,-122 933.39,-122 933.39,-86 1078.61,-86 1078.61,-122"/>
<text text-anchor="middle" x="1006" y="-99.8" font-family="Times,serif" font-size="14.00">RegionRoutingModule</text>
</g>
<!-- RegionRoutingModule&#45;&gt;RegionModule -->
<g id="edge11" class="edge">
<title>RegionRoutingModule&#45;&gt;RegionModule</title>
<path fill="none" stroke="black" d="M937.72,-122.01C937.72,-122.01 937.72,-151.85 937.72,-151.85"/>
<polygon fill="black" stroke="black" points="934.22,-151.85 937.72,-161.85 941.22,-151.85 934.22,-151.85"/>
</g>
</g>
</svg>
